<svg width="32" height="32" viewBox="0 0 32 32" fill="none" xmlns="http://www.w3.org/2000/svg">
  <!-- ピンの影 -->
  <ellipse cx="16" cy="30" rx="8" ry="3" fill="rgba(0,0,0,0.2)"/>
  
  <!-- ピンの本体 -->
  <path d="M16 2C10.477 2 6 6.477 6 12c0 4.991 3.657 9.128 8.438 9.879V28c0 1.105.895 2 2 2s2-.895 2-2v-6.121C25.343 21.128 29 16.991 29 12c0-5.523-4.477-10-10-10z" fill="#0071b0"/>
  
  <!-- ピンのハイライト -->
  <path d="M16 4C11.589 4 8 7.589 8 12c0 4.411 3.589 8 8 8s8-3.589 8-8c0-4.411-3.589-8-8-8z" fill="#009ff5"/>
  
  <!-- 波のアイコン -->
  <path d="M12 14c0 1.105.895 2 2 2s2-.895 2-2-2-2-2-2-2 .895-2 2zm4 0c0 1.105.895 2 2 2s2-.895 2-2-2-2-2-2-2 .895-2 2z" fill="white" opacity="0.8"/>
  
  <!-- ピンの先端 -->
  <circle cx="16" cy="12" r="2" fill="white"/>
</svg> 